<mxfile host="app.diagrams.net" modified="2024-05-09T09:07:48.730Z" agent="Mozilla/5.0 (Windows NT 10.0; Win64; x64) AppleWebKit/537.36 (KHTML, like Gecko) Chrome/124.0.0.0 Safari/537.36" etag="mtLAsPKpUZjRVDhgu1AG" version="24.3.1" type="github">
  <diagram name="第 1 页" id="7yNvufm_qiPy2f1DZHuH">
    <mxGraphModel dx="1687" dy="922" grid="1" gridSize="10" guides="1" tooltips="1" connect="1" arrows="1" fold="1" page="1" pageScale="1" pageWidth="827" pageHeight="1169" math="0" shadow="0">
      <root>
        <mxCell id="0" />
        <mxCell id="1" parent="0" />
        <mxCell id="5jqLKMEq6hBwlOF87pOW-187" value="" style="group" vertex="1" connectable="0" parent="1">
          <mxGeometry x="90" y="170" width="266" height="185" as="geometry" />
        </mxCell>
        <mxCell id="5jqLKMEq6hBwlOF87pOW-155" value="ofs_iovec_t" style="swimlane;whiteSpace=wrap;html=1;fillColor=#ffe6cc;strokeColor=#d79b00;container=0;" vertex="1" parent="5jqLKMEq6hBwlOF87pOW-187">
          <mxGeometry x="20" y="115" width="105" height="70" as="geometry" />
        </mxCell>
        <mxCell id="5jqLKMEq6hBwlOF87pOW-162" value="ofs_iovec_t" style="swimlane;whiteSpace=wrap;html=1;fillColor=#f8cecc;strokeColor=#b85450;container=0;" vertex="1" parent="5jqLKMEq6hBwlOF87pOW-187">
          <mxGeometry x="161" y="115" width="105" height="70" as="geometry" />
        </mxCell>
        <mxCell id="5jqLKMEq6hBwlOF87pOW-164" value="" style="endArrow=none;dashed=1;html=1;dashPattern=1 3;strokeWidth=2;rounded=0;" edge="1" parent="5jqLKMEq6hBwlOF87pOW-187">
          <mxGeometry width="50" height="50" relative="1" as="geometry">
            <mxPoint x="126" y="155" as="sourcePoint" />
            <mxPoint x="166" y="155" as="targetPoint" />
          </mxGeometry>
        </mxCell>
        <mxCell id="5jqLKMEq6hBwlOF87pOW-156" value="iov_base&lt;div&gt;iov_len&lt;/div&gt;" style="text;html=1;align=left;verticalAlign=middle;resizable=0;points=[];autosize=1;strokeColor=none;fillColor=none;container=0;" vertex="1" parent="5jqLKMEq6hBwlOF87pOW-187">
          <mxGeometry x="39" y="145" width="70" height="40" as="geometry" />
        </mxCell>
        <mxCell id="5jqLKMEq6hBwlOF87pOW-163" value="iov_base&lt;div&gt;iov_len&lt;/div&gt;" style="text;html=1;align=left;verticalAlign=middle;resizable=0;points=[];autosize=1;strokeColor=none;fillColor=none;container=0;" vertex="1" parent="5jqLKMEq6hBwlOF87pOW-187">
          <mxGeometry x="193" y="145" width="70" height="40" as="geometry" />
        </mxCell>
        <mxCell id="5jqLKMEq6hBwlOF87pOW-139" value="StarSgl_t" style="swimlane;whiteSpace=wrap;html=1;container=0;fillColor=#b0e3e6;strokeColor=#0e8088;" vertex="1" parent="5jqLKMEq6hBwlOF87pOW-187">
          <mxGeometry x="34" width="140" height="90" as="geometry" />
        </mxCell>
        <mxCell id="5jqLKMEq6hBwlOF87pOW-201" style="edgeStyle=orthogonalEdgeStyle;rounded=0;orthogonalLoop=1;jettySize=auto;html=1;" edge="1" parent="5jqLKMEq6hBwlOF87pOW-187" source="5jqLKMEq6hBwlOF87pOW-141">
          <mxGeometry relative="1" as="geometry">
            <mxPoint x="354" y="35.91000000000008" as="targetPoint" />
          </mxGeometry>
        </mxCell>
        <mxCell id="5jqLKMEq6hBwlOF87pOW-141" value="struct StarSgl_t* pNext" style="text;strokeColor=none;align=left;fillColor=none;html=1;verticalAlign=middle;whiteSpace=wrap;rounded=0;container=0;" vertex="1" parent="5jqLKMEq6hBwlOF87pOW-187">
          <mxGeometry x="42" y="25" width="130" height="21.82" as="geometry" />
        </mxCell>
        <mxCell id="5jqLKMEq6hBwlOF87pOW-169" style="edgeStyle=orthogonalEdgeStyle;rounded=0;orthogonalLoop=1;jettySize=auto;html=1;entryX=0;entryY=0.5;entryDx=0;entryDy=0;exitX=1;exitY=0.5;exitDx=0;exitDy=0;" edge="1" parent="5jqLKMEq6hBwlOF87pOW-187" source="5jqLKMEq6hBwlOF87pOW-142" target="5jqLKMEq6hBwlOF87pOW-155">
          <mxGeometry relative="1" as="geometry">
            <Array as="points">
              <mxPoint x="185" y="77" />
              <mxPoint x="185" y="103" />
              <mxPoint y="103" />
              <mxPoint y="150" />
            </Array>
          </mxGeometry>
        </mxCell>
        <mxCell id="5jqLKMEq6hBwlOF87pOW-142" value="ofs_iovec_t* pSgeArr" style="text;strokeColor=none;align=left;fillColor=none;html=1;verticalAlign=middle;whiteSpace=wrap;rounded=0;container=0;" vertex="1" parent="5jqLKMEq6hBwlOF87pOW-187">
          <mxGeometry x="42" y="66.45634782608704" width="122.90687500000004" height="21.81913043478261" as="geometry" />
        </mxCell>
        <mxCell id="5jqLKMEq6hBwlOF87pOW-144" value="StarU32_t sgeNum" style="text;strokeColor=none;align=left;fillColor=none;html=1;verticalAlign=middle;whiteSpace=wrap;rounded=0;container=0;" vertex="1" parent="5jqLKMEq6hBwlOF87pOW-187">
          <mxGeometry x="42" y="45.364521739130396" width="122.90687500000004" height="21.81913043478261" as="geometry" />
        </mxCell>
        <mxCell id="5jqLKMEq6hBwlOF87pOW-188" value="" style="group" vertex="1" connectable="0" parent="1">
          <mxGeometry x="407" y="170" width="266" height="185" as="geometry" />
        </mxCell>
        <mxCell id="5jqLKMEq6hBwlOF87pOW-189" value="StarSgl_t" style="swimlane;whiteSpace=wrap;html=1;container=0;fillColor=#b1ddf0;strokeColor=#10739e;" vertex="1" parent="5jqLKMEq6hBwlOF87pOW-188">
          <mxGeometry x="34" width="140" height="90" as="geometry" />
        </mxCell>
        <mxCell id="5jqLKMEq6hBwlOF87pOW-213" style="edgeStyle=orthogonalEdgeStyle;rounded=0;orthogonalLoop=1;jettySize=auto;html=1;" edge="1" parent="5jqLKMEq6hBwlOF87pOW-188" source="5jqLKMEq6hBwlOF87pOW-190">
          <mxGeometry relative="1" as="geometry">
            <mxPoint x="347" y="36" as="targetPoint" />
          </mxGeometry>
        </mxCell>
        <mxCell id="5jqLKMEq6hBwlOF87pOW-190" value="struct StarSgl_t* pNext" style="text;strokeColor=none;align=left;fillColor=none;html=1;verticalAlign=middle;whiteSpace=wrap;rounded=0;container=0;" vertex="1" parent="5jqLKMEq6hBwlOF87pOW-188">
          <mxGeometry x="42" y="25" width="130" height="21.82" as="geometry" />
        </mxCell>
        <mxCell id="5jqLKMEq6hBwlOF87pOW-191" style="edgeStyle=orthogonalEdgeStyle;rounded=0;orthogonalLoop=1;jettySize=auto;html=1;entryX=0;entryY=0.5;entryDx=0;entryDy=0;exitX=1;exitY=0.5;exitDx=0;exitDy=0;" edge="1" parent="5jqLKMEq6hBwlOF87pOW-188" source="5jqLKMEq6hBwlOF87pOW-192" target="5jqLKMEq6hBwlOF87pOW-194">
          <mxGeometry relative="1" as="geometry">
            <Array as="points">
              <mxPoint x="185" y="77" />
              <mxPoint x="185" y="103" />
              <mxPoint y="103" />
              <mxPoint y="150" />
            </Array>
          </mxGeometry>
        </mxCell>
        <mxCell id="5jqLKMEq6hBwlOF87pOW-192" value="ofs_iovec_t* pSgeArr" style="text;strokeColor=none;align=left;fillColor=none;html=1;verticalAlign=middle;whiteSpace=wrap;rounded=0;container=0;" vertex="1" parent="5jqLKMEq6hBwlOF87pOW-188">
          <mxGeometry x="42" y="66.45634782608704" width="122.90687500000004" height="21.81913043478261" as="geometry" />
        </mxCell>
        <mxCell id="5jqLKMEq6hBwlOF87pOW-194" value="ofs_iovec_t" style="swimlane;whiteSpace=wrap;html=1;fillColor=#ffe6cc;strokeColor=#d79b00;container=0;" vertex="1" parent="5jqLKMEq6hBwlOF87pOW-188">
          <mxGeometry x="20" y="115" width="105" height="70" as="geometry" />
        </mxCell>
        <mxCell id="5jqLKMEq6hBwlOF87pOW-195" value="ofs_iovec_t" style="swimlane;whiteSpace=wrap;html=1;fillColor=#f8cecc;strokeColor=#b85450;container=0;" vertex="1" parent="5jqLKMEq6hBwlOF87pOW-188">
          <mxGeometry x="161" y="115" width="105" height="70" as="geometry" />
        </mxCell>
        <mxCell id="5jqLKMEq6hBwlOF87pOW-196" value="" style="endArrow=none;dashed=1;html=1;dashPattern=1 3;strokeWidth=2;rounded=0;" edge="1" parent="5jqLKMEq6hBwlOF87pOW-188">
          <mxGeometry width="50" height="50" relative="1" as="geometry">
            <mxPoint x="126" y="155" as="sourcePoint" />
            <mxPoint x="166" y="155" as="targetPoint" />
          </mxGeometry>
        </mxCell>
        <mxCell id="5jqLKMEq6hBwlOF87pOW-197" value="iov_base&lt;div&gt;iov_len&lt;/div&gt;" style="text;html=1;align=left;verticalAlign=middle;resizable=0;points=[];autosize=1;strokeColor=none;fillColor=none;container=0;" vertex="1" parent="5jqLKMEq6hBwlOF87pOW-188">
          <mxGeometry x="39" y="145" width="70" height="40" as="geometry" />
        </mxCell>
        <mxCell id="5jqLKMEq6hBwlOF87pOW-198" value="iov_base&lt;div&gt;iov_len&lt;/div&gt;" style="text;html=1;align=left;verticalAlign=middle;resizable=0;points=[];autosize=1;strokeColor=none;fillColor=none;container=0;" vertex="1" parent="5jqLKMEq6hBwlOF87pOW-188">
          <mxGeometry x="193" y="145" width="70" height="40" as="geometry" />
        </mxCell>
        <mxCell id="5jqLKMEq6hBwlOF87pOW-193" value="StarU32_t sgeNum" style="text;strokeColor=none;align=left;fillColor=none;html=1;verticalAlign=middle;whiteSpace=wrap;rounded=0;container=0;" vertex="1" parent="5jqLKMEq6hBwlOF87pOW-188">
          <mxGeometry x="42" y="45.364521739130396" width="122.90687500000004" height="21.81913043478261" as="geometry" />
        </mxCell>
        <mxCell id="5jqLKMEq6hBwlOF87pOW-202" value="" style="group" vertex="1" connectable="0" parent="1">
          <mxGeometry x="724" y="170" width="266" height="185" as="geometry" />
        </mxCell>
        <mxCell id="5jqLKMEq6hBwlOF87pOW-203" value="StarSgl_t" style="swimlane;whiteSpace=wrap;html=1;container=0;fillColor=#d0cee2;strokeColor=#56517e;" vertex="1" parent="5jqLKMEq6hBwlOF87pOW-202">
          <mxGeometry x="34" width="140" height="90" as="geometry" />
        </mxCell>
        <mxCell id="5jqLKMEq6hBwlOF87pOW-204" value="struct StarSgl_t* pNext" style="text;strokeColor=none;align=left;fillColor=none;html=1;verticalAlign=middle;whiteSpace=wrap;rounded=0;container=0;" vertex="1" parent="5jqLKMEq6hBwlOF87pOW-202">
          <mxGeometry x="42" y="25" width="130" height="21.82" as="geometry" />
        </mxCell>
        <mxCell id="5jqLKMEq6hBwlOF87pOW-205" style="edgeStyle=orthogonalEdgeStyle;rounded=0;orthogonalLoop=1;jettySize=auto;html=1;entryX=0;entryY=0.5;entryDx=0;entryDy=0;exitX=1;exitY=0.5;exitDx=0;exitDy=0;" edge="1" parent="5jqLKMEq6hBwlOF87pOW-202" source="5jqLKMEq6hBwlOF87pOW-206" target="5jqLKMEq6hBwlOF87pOW-208">
          <mxGeometry relative="1" as="geometry">
            <Array as="points">
              <mxPoint x="185" y="77" />
              <mxPoint x="185" y="103" />
              <mxPoint y="103" />
              <mxPoint y="150" />
            </Array>
          </mxGeometry>
        </mxCell>
        <mxCell id="5jqLKMEq6hBwlOF87pOW-206" value="ofs_iovec_t* pSgeArr" style="text;strokeColor=none;align=left;fillColor=none;html=1;verticalAlign=middle;whiteSpace=wrap;rounded=0;container=0;" vertex="1" parent="5jqLKMEq6hBwlOF87pOW-202">
          <mxGeometry x="42" y="66.45634782608704" width="122.90687500000004" height="21.81913043478261" as="geometry" />
        </mxCell>
        <mxCell id="5jqLKMEq6hBwlOF87pOW-207" value="StarU32_t sgeNum" style="text;strokeColor=none;align=left;fillColor=none;html=1;verticalAlign=middle;whiteSpace=wrap;rounded=0;container=0;" vertex="1" parent="5jqLKMEq6hBwlOF87pOW-202">
          <mxGeometry x="42" y="45.364521739130396" width="122.90687500000004" height="21.81913043478261" as="geometry" />
        </mxCell>
        <mxCell id="5jqLKMEq6hBwlOF87pOW-208" value="ofs_iovec_t" style="swimlane;whiteSpace=wrap;html=1;fillColor=#ffe6cc;strokeColor=#d79b00;container=0;" vertex="1" parent="5jqLKMEq6hBwlOF87pOW-202">
          <mxGeometry x="20" y="115" width="105" height="70" as="geometry" />
        </mxCell>
        <mxCell id="5jqLKMEq6hBwlOF87pOW-209" value="ofs_iovec_t" style="swimlane;whiteSpace=wrap;html=1;fillColor=#f8cecc;strokeColor=#b85450;container=0;" vertex="1" parent="5jqLKMEq6hBwlOF87pOW-202">
          <mxGeometry x="161" y="115" width="105" height="70" as="geometry" />
        </mxCell>
        <mxCell id="5jqLKMEq6hBwlOF87pOW-210" value="" style="endArrow=none;dashed=1;html=1;dashPattern=1 3;strokeWidth=2;rounded=0;" edge="1" parent="5jqLKMEq6hBwlOF87pOW-202">
          <mxGeometry width="50" height="50" relative="1" as="geometry">
            <mxPoint x="126" y="155" as="sourcePoint" />
            <mxPoint x="166" y="155" as="targetPoint" />
          </mxGeometry>
        </mxCell>
        <mxCell id="5jqLKMEq6hBwlOF87pOW-211" value="iov_base&lt;div&gt;iov_len&lt;/div&gt;" style="text;html=1;align=left;verticalAlign=middle;resizable=0;points=[];autosize=1;strokeColor=none;fillColor=none;container=0;" vertex="1" parent="5jqLKMEq6hBwlOF87pOW-202">
          <mxGeometry x="39" y="145" width="70" height="40" as="geometry" />
        </mxCell>
        <mxCell id="5jqLKMEq6hBwlOF87pOW-212" value="iov_base&lt;div&gt;iov_len&lt;/div&gt;" style="text;html=1;align=left;verticalAlign=middle;resizable=0;points=[];autosize=1;strokeColor=none;fillColor=none;container=0;" vertex="1" parent="5jqLKMEq6hBwlOF87pOW-202">
          <mxGeometry x="193" y="145" width="70" height="40" as="geometry" />
        </mxCell>
        <mxCell id="5jqLKMEq6hBwlOF87pOW-123" value="&lt;font style=&quot;font-size: 20px;&quot;&gt;StarCommSgl_t&lt;/font&gt;" style="swimlane;whiteSpace=wrap;html=1;startSize=50;container=0;fillColor=#b0e3e6;strokeColor=#0e8088;" vertex="1" parent="1">
          <mxGeometry x="124" y="450" width="170" height="140" as="geometry" />
        </mxCell>
        <mxCell id="5jqLKMEq6hBwlOF87pOW-136" value="" style="group" vertex="1" connectable="0" parent="5jqLKMEq6hBwlOF87pOW-123">
          <mxGeometry x="8.73" y="53.18" width="151.27" height="83.64" as="geometry" />
        </mxCell>
        <mxCell id="5jqLKMEq6hBwlOF87pOW-124" value="StarU32_t totalSize" style="text;strokeColor=none;align=left;fillColor=none;html=1;verticalAlign=middle;whiteSpace=wrap;rounded=0;container=0;" vertex="1" parent="5jqLKMEq6hBwlOF87pOW-136">
          <mxGeometry width="122.90687500000004" height="21.81913043478261" as="geometry" />
        </mxCell>
        <mxCell id="5jqLKMEq6hBwlOF87pOW-125" value="StarU8_t&amp;nbsp; flags" style="text;strokeColor=none;align=left;fillColor=none;html=1;verticalAlign=middle;whiteSpace=wrap;rounded=0;container=0;" vertex="1" parent="5jqLKMEq6hBwlOF87pOW-136">
          <mxGeometry y="41.456347826087" width="122.90687500000004" height="21.81913043478261" as="geometry" />
        </mxCell>
        <mxCell id="5jqLKMEq6hBwlOF87pOW-126" value="StarCommSge_t sgeArr[0]" style="text;strokeColor=none;align=left;fillColor=none;html=1;verticalAlign=middle;whiteSpace=wrap;rounded=0;container=0;" vertex="1" parent="5jqLKMEq6hBwlOF87pOW-136">
          <mxGeometry y="61.82086956521733" width="151.27000000000004" height="21.81913043478261" as="geometry" />
        </mxCell>
        <mxCell id="5jqLKMEq6hBwlOF87pOW-128" value="StarU16_t sgeNr" style="text;strokeColor=none;align=left;fillColor=none;html=1;verticalAlign=middle;whiteSpace=wrap;rounded=0;container=0;" vertex="1" parent="5jqLKMEq6hBwlOF87pOW-136">
          <mxGeometry y="20.364521739130446" width="122.90687500000004" height="21.81913043478261" as="geometry" />
        </mxCell>
        <mxCell id="5jqLKMEq6hBwlOF87pOW-225" value="" style="group" vertex="1" connectable="0" parent="1">
          <mxGeometry x="117" y="638" width="880" height="110" as="geometry" />
        </mxCell>
        <mxCell id="5jqLKMEq6hBwlOF87pOW-214" value="StarCommSge_t" style="swimlane;whiteSpace=wrap;html=1;fillColor=#d0cee2;strokeColor=#56517e;" vertex="1" parent="5jqLKMEq6hBwlOF87pOW-225">
          <mxGeometry width="200" height="110" as="geometry" />
        </mxCell>
        <mxCell id="5jqLKMEq6hBwlOF87pOW-215" value="void* Protected(ptr)&lt;div&gt;StarU32_t len&lt;/div&gt;&lt;div&gt;StarU16_t opKey&lt;/div&gt;&lt;div&gt;StarU8_t opFlags&lt;/div&gt;&lt;div&gt;StarU8_t Protected(isVaddrType)&lt;/div&gt;" style="text;html=1;align=left;verticalAlign=middle;resizable=0;points=[];autosize=1;strokeColor=none;fillColor=none;" vertex="1" parent="5jqLKMEq6hBwlOF87pOW-214">
          <mxGeometry x="9" y="20" width="200" height="90" as="geometry" />
        </mxCell>
        <mxCell id="5jqLKMEq6hBwlOF87pOW-217" value="StarCommSge_t" style="swimlane;whiteSpace=wrap;html=1;fillColor=#bac8d3;strokeColor=#23445d;" vertex="1" parent="5jqLKMEq6hBwlOF87pOW-225">
          <mxGeometry x="200" width="200" height="110" as="geometry" />
        </mxCell>
        <mxCell id="5jqLKMEq6hBwlOF87pOW-218" value="void* Protected(ptr)&lt;div&gt;StarU32_t len&lt;/div&gt;&lt;div&gt;StarU16_t opKey&lt;/div&gt;&lt;div&gt;StarU8_t opFlags&lt;/div&gt;&lt;div&gt;StarU8_t Protected(isVaddrType)&lt;/div&gt;" style="text;html=1;align=left;verticalAlign=middle;resizable=0;points=[];autosize=1;strokeColor=none;fillColor=none;" vertex="1" parent="5jqLKMEq6hBwlOF87pOW-217">
          <mxGeometry x="10" y="20" width="200" height="90" as="geometry" />
        </mxCell>
        <mxCell id="5jqLKMEq6hBwlOF87pOW-219" value="StarCommSge_t" style="swimlane;whiteSpace=wrap;html=1;fillColor=#d5e8d4;strokeColor=#82b366;gradientColor=#97d077;" vertex="1" parent="5jqLKMEq6hBwlOF87pOW-225">
          <mxGeometry x="400" width="200" height="110" as="geometry" />
        </mxCell>
        <mxCell id="5jqLKMEq6hBwlOF87pOW-220" value="void* Protected(ptr)&lt;div&gt;StarU32_t len&lt;/div&gt;&lt;div&gt;StarU16_t opKey&lt;/div&gt;&lt;div&gt;StarU8_t opFlags&lt;/div&gt;&lt;div&gt;StarU8_t Protected(isVaddrType)&lt;/div&gt;" style="text;html=1;align=left;verticalAlign=middle;resizable=0;points=[];autosize=1;strokeColor=none;fillColor=none;" vertex="1" parent="5jqLKMEq6hBwlOF87pOW-219">
          <mxGeometry x="10" y="20" width="200" height="90" as="geometry" />
        </mxCell>
        <mxCell id="5jqLKMEq6hBwlOF87pOW-221" value="StarCommSge_t" style="swimlane;whiteSpace=wrap;html=1;fillColor=#dae8fc;strokeColor=#6c8ebf;gradientColor=#7ea6e0;" vertex="1" parent="5jqLKMEq6hBwlOF87pOW-225">
          <mxGeometry x="680" width="200" height="110" as="geometry" />
        </mxCell>
        <mxCell id="5jqLKMEq6hBwlOF87pOW-222" value="void* Protected(ptr)&lt;div&gt;StarU32_t len&lt;/div&gt;&lt;div&gt;StarU16_t opKey&lt;/div&gt;&lt;div&gt;StarU8_t opFlags&lt;/div&gt;&lt;div&gt;StarU8_t Protected(isVaddrType)&lt;/div&gt;" style="text;html=1;align=left;verticalAlign=middle;resizable=0;points=[];autosize=1;strokeColor=none;fillColor=none;" vertex="1" parent="5jqLKMEq6hBwlOF87pOW-221">
          <mxGeometry x="10" y="20" width="200" height="90" as="geometry" />
        </mxCell>
        <mxCell id="5jqLKMEq6hBwlOF87pOW-223" value="" style="endArrow=none;dashed=1;html=1;dashPattern=1 3;strokeWidth=2;rounded=0;exitX=1.002;exitY=0.375;exitDx=0;exitDy=0;exitPerimeter=0;" edge="1" parent="5jqLKMEq6hBwlOF87pOW-225">
          <mxGeometry width="50" height="50" relative="1" as="geometry">
            <mxPoint x="607.4000000000001" y="53.75" as="sourcePoint" />
            <mxPoint x="677" y="54" as="targetPoint" />
          </mxGeometry>
        </mxCell>
        <mxCell id="5jqLKMEq6hBwlOF87pOW-228" style="edgeStyle=orthogonalEdgeStyle;rounded=0;orthogonalLoop=1;jettySize=auto;html=1;entryX=0;entryY=0.5;entryDx=0;entryDy=0;exitX=1;exitY=0.25;exitDx=0;exitDy=0;" edge="1" parent="1" source="5jqLKMEq6hBwlOF87pOW-126" target="5jqLKMEq6hBwlOF87pOW-214">
          <mxGeometry relative="1" as="geometry">
            <mxPoint x="334" y="570" as="sourcePoint" />
          </mxGeometry>
        </mxCell>
        <mxCell id="5jqLKMEq6hBwlOF87pOW-241" value="" style="shape=flexArrow;endArrow=classic;html=1;rounded=0;" edge="1" parent="1">
          <mxGeometry width="50" height="50" relative="1" as="geometry">
            <mxPoint x="580" y="380" as="sourcePoint" />
            <mxPoint x="580" y="600" as="targetPoint" />
          </mxGeometry>
        </mxCell>
        <mxCell id="5jqLKMEq6hBwlOF87pOW-242" value="&lt;font style=&quot;font-size: 14px;&quot;&gt;StarCommSge_t.Protect(ptr) = ofs_iovec_t.iov_base&lt;/font&gt;&lt;div style=&quot;font-size: 14px;&quot;&gt;&lt;font style=&quot;font-size: 14px;&quot;&gt;StarCommSge_t.len = ofs_iovec_t.iov_len&lt;/font&gt;&lt;/div&gt;" style="edgeLabel;html=1;align=left;verticalAlign=middle;resizable=0;points=[];" vertex="1" connectable="0" parent="5jqLKMEq6hBwlOF87pOW-241">
          <mxGeometry x="-0.2955" y="2" relative="1" as="geometry">
            <mxPoint x="18" y="33" as="offset" />
          </mxGeometry>
        </mxCell>
      </root>
    </mxGraphModel>
  </diagram>
</mxfile>
